<svg xmlns="http://www.w3.org/2000/svg" preserveAspectRatio="none" viewBox="0 0 100 1"><rect fill="#2563EB" width="1" height="0.5857336601304801" x="0" y="0.4142663398695199" /><rect fill="#2563EB" width="1" height="0.726000158284726" x="1" y="0.27399984171527403" /><rect fill="#2563EB" width="1" height="0.7130141083407047" x="2" y="0.28698589165929533" /><rect fill="#2563EB" width="1" height="0.9185512665856238" x="3" y="0.0814487334143762" /><rect fill="#2563EB" width="1" height="0.7043042981099535" x="4" y="0.29569570189004646" /><rect fill="#2563EB" width="1" height="0.5640221366681863" x="5" y="0.43597786333181365" /><rect fill="#2563EB" width="1" height="0.9634571018921269" x="6" y="0.036542898107873145" /><rect fill="#2563EB" width="1" height="0.7226610181176234" x="7" y="0.2773389818823766" /><rect fill="#2563EB" width="1" height="0.700096389555635" x="8" y="0.299903610444365" /><rect fill="#2563EB" width="1" height="0.8901570485896799" x="9" y="0.10984295141032008" /><rect fill="#2563EB" width="1" height="0.7074501447922663" x="10" y="0.2925498552077337" /><rect fill="#2563EB" width="1" height="0.6261988387646725" x="11" y="0.3738011612353275" /><rect fill="#2563EB" width="1" height="0.7896440147569802" x="12" y="0.2103559852430198" /><rect fill="#2563EB" width="1" height="0.8805578331180303" x="13" y="0.11944216688196974" /><rect fill="#2563EB" width="1" height="0.6973084710141517" x="14" y="0.3026915289858483" /><rect fill="#2563EB" width="1" height="0.7581090776848165" x="15" y="0.2418909223151835" /><rect fill="#2563EB" width="1" height="0.7001372259439431" x="16" y="0.2998627740560569" /><rect fill="#2563EB" width="1" height="0.607916997677687" x="17" y="0.39208300232231297" /><rect fill="#2563EB" width="1" height="0.6652300929063181" x="18" y="0.33476990709368193" /><rect fill="#2563EB" width="1" height="0.7914921180107527" x="19" y="0.2085078819892473" /><rect fill="#2563EB" width="1" height="0.6607022587415982" x="20" y="0.33929774125840184" /><rect fill="#2563EB" width="1" height="0.7521350633077036" x="21" y="0.24786493669229637" /><rect fill="#2563EB" width="1" height="0.9330063251789197" x="22" y="0.06699367482108032" /><rect fill="#2563EB" width="1" height="0.696398018979707" x="23" y="0.303601981020293" /><rect fill="#2563EB" width="1" height="0.5716554777531491" x="24" y="0.42834452224685093" /><rect fill="#2563EB" width="1" height="0.8940729021275904" x="25" y="0.10592709787240961" /><rect fill="#2563EB" width="1" height="0.7791521955950262" x="26" y="0.22084780440497376" /><rect fill="#2563EB" width="1" height="0.7857929257390537" x="27" y="0.21420707426094632" /><rect fill="#2563EB" width="1" height="0.8698105168114018" x="28" y="0.13018948318859824" /><rect fill="#2563EB" width="1" height="0.7351240015617291" x="29" y="0.2648759984382709" /><rect fill="#2563EB" width="1" height="0.6770621982513295" x="30" y="0.3229378017486705" /><rect fill="#2563EB" width="1" height="0.8286043997333769" x="31" y="0.17139560026662315" /><rect fill="#2563EB" width="1" height="0.7938470733845214" x="32" y="0.20615292661547857" /><rect fill="#2563EB" width="1" height="0.6769281090667743" x="33" y="0.32307189093322575" /><rect fill="#2563EB" width="1" height="0.8214226341111216" x="34" y="0.1785773658888784" /><rect fill="#2563EB" width="1" height="0.8028195100999156" x="35" y="0.1971804899000844" /><rect fill="#2563EB" width="1" height="0.8333833250447903" x="36" y="0.1666166749552097" /><rect fill="#2563EB" width="1" height="0.8696166246462375" x="37" y="0.13038337535376254" /><rect fill="#2563EB" width="1" height="0.9114462571643356" x="38" y="0.08855374283566442" /><rect fill="#2563EB" width="1" height="0.6724860728978206" x="39" y="0.3275139271021794" /><rect fill="#2563EB" width="1" height="0.858646984912857" x="40" y="0.14135301508714304" /><rect fill="#2563EB" width="1" height="0.9410366170029911" x="41" y="0.05896338299700887" /><rect fill="#2563EB" width="1" height="0.7431553495339345" x="42" y="0.2568446504660655" /><rect fill="#2563EB" width="1" height="0.7216167722410853" x="43" y="0.27838322775891466" /><rect fill="#2563EB" width="1" height="0.9844446737685968" x="44" y="0.01555532623140321" /><rect fill="#2563EB" width="1" height="0.7855142400112208" x="45" y="0.21448575998877917" /><rect fill="#2563EB" width="1" height="0.7221509376884946" x="46" y="0.2778490623115054" /><rect fill="#2563EB" width="1" height="0.9437369305035149" x="47" y="0.056263069496485074" /><rect fill="#2563EB" width="1" height="0.7703562684928771" x="48" y="0.22964373150712292" /><rect fill="#2563EB" width="1" height="0.8150269860953587" x="49" y="0.18497301390464127" /><rect fill="#2563EB" width="1" height="0.7903416017603071" x="50" y="0.2096583982396929" /><rect fill="#2563EB" width="1" height="0.601412785183965" x="51" y="0.398587214816035" /><rect fill="#2563EB" width="1" height="0.4874788399625715" x="52" y="0.5125211600374284" /><rect fill="#2563EB" width="1" height="0.5373484076219306" x="53" y="0.4626515923780694" /><rect fill="#2563EB" width="1" height="0.5203280735631737" x="54" y="0.4796719264368263" /><rect fill="#2563EB" width="1" height="0.6293934826189665" x="55" y="0.37060651738103345" /><rect fill="#2563EB" width="1" height="0.5939346476934767" x="56" y="0.4060653523065233" /><rect fill="#2563EB" width="1" height="0.5469358093295537" x="57" y="0.45306419067044634" /><rect fill="#2563EB" width="1" height="0.6324015766531005" x="58" y="0.3675984233468995" /><rect fill="#2563EB" width="1" height="0.5929152696516291" x="59" y="0.4070847303483709" /><rect fill="#2563EB" width="1" height="0.4973273596158482" x="60" y="0.5026726403841518" /><rect fill="#2563EB" width="1" height="0.55723191397186" x="61" y="0.44276808602814" /><rect fill="#2563EB" width="1" height="0.581937329958706" x="62" y="0.41806267004129405" /><rect fill="#2563EB" width="1" height="0.6076212615642019" x="63" y="0.39237873843579807" /><rect fill="#2563EB" width="1" height="0.5657351352587557" x="64" y="0.43426486474124426" /><rect fill="#2563EB" width="1" height="0.6188305528048919" x="65" y="0.38116944719510815" /><rect fill="#2563EB" width="1" height="0.6049713718244931" x="66" y="0.3950286281755069" /><rect fill="#2563EB" width="1" height="0.5632244752891349" x="67" y="0.4367755247108651" /><rect fill="#2563EB" width="1" height="0.6518848441759687" x="68" y="0.3481151558240313" /><rect fill="#2563EB" width="1" height="0.5859175657205504" x="69" y="0.4140824342794496" /><rect fill="#2563EB" width="1" height="0.9177190394073388" x="70" y="0.08228096059266121" /><rect fill="#2563EB" width="1" height="0.7352706386207691" x="71" y="0.26472936137923087" /><rect fill="#2563EB" width="1" height="0.9636938784207855" x="72" y="0.036306121579214534" /><rect fill="#2563EB" width="1" height="0.8001341760896851" x="73" y="0.19986582391031493" /><rect fill="#2563EB" width="1" height="0.7088026570021347" x="74" y="0.29119734299786526" /><rect fill="#2563EB" width="1" height="0.8751718523907163" x="75" y="0.12482814760928373" /><rect fill="#2563EB" width="1" height="0.915998577426905" x="76" y="0.08400142257309495" /><rect fill="#2563EB" width="1" height="0.7874290263339282" x="77" y="0.2125709736660718" /><rect fill="#2563EB" width="1" height="0.8844461327222324" x="78" y="0.11555386727776762" /><rect fill="#2563EB" width="1" height="0.9812457722641805" x="79" y="0.018754227735819473" /><rect fill="#2563EB" width="1" height="0.7844421383177075" x="80" y="0.21555786168229252" /><rect fill="#2563EB" width="1" height="0.7897760707046576" x="81" y="0.2102239292953424" /><rect fill="#2563EB" width="1" height="1" x="82" y="0" /><rect fill="#2563EB" width="1" height="0.8085966095328232" x="83" y="0.1914033904671768" /><rect fill="#2563EB" width="1" height="0.7562180253213934" x="84" y="0.24378197467860663" /><rect fill="#2563EB" width="1" height="0.9970845469693819" x="85" y="0.0029154530306181314" /><rect fill="#2563EB" width="1" height="0.795311345070731" x="86" y="0.20468865492926902" /><rect fill="#2563EB" width="1" height="0.7924925794651981" x="87" y="0.20750742053480187" /><rect fill="#2563EB" width="1" height="0.9592496437215137" x="88" y="0.04075035627848633" /><rect fill="#2563EB" width="1" height="0.8720112690037333" x="89" y="0.12798873099626673" /><rect fill="#2563EB" width="1" height="0.8145803519582792" x="90" y="0.18541964804172084" /><rect fill="#2563EB" width="1" height="0.9370660516162069" x="91" y="0.06293394838379307" /><rect fill="#2563EB" width="1" height="0.8688813614799964" x="92" y="0.1311186385200036" /><rect fill="#2563EB" width="1" height="0.8551616611572784" x="93" y="0.14483833884272157" /><rect fill="#2563EB" width="1" height="0.91601996599501" x="94" y="0.08398003400498999" /><rect fill="#2563EB" width="1" height="0.10811414028353789" x="95" y="0.8918858597164621" /><rect fill="#2563EB" width="1" height="0.007460716317297149" x="96" y="0.9925392836827028" /><rect fill="#2563EB" width="1" height="0.0024891166516253518" x="97" y="0.9975108833483747" /><rect fill="#2563EB" width="1" height="0.0008176330480744298" x="98" y="0.9991823669519255" /><rect fill="#2563EB" width="1" height="0.0002579820056716093" x="99" y="0.9997420179943284" /></svg>