<svg xmlns="http://www.w3.org/2000/svg" preserveAspectRatio="none" viewBox="0 0 100 1"><rect fill="#2563EB" width="1" height="0.2149212060000791" x="0" y="0.7850787939999209" /><rect fill="#2563EB" width="1" height="0.42123768919418847" x="1" y="0.5787623108058115" /><rect fill="#2563EB" width="1" height="0.5021871633001275" x="2" y="0.49781283669987253" /><rect fill="#2563EB" width="1" height="0.37981132226137065" x="3" y="0.6201886777386294" /><rect fill="#2563EB" width="1" height="0.425366099064376" x="4" y="0.574633900935624" /><rect fill="#2563EB" width="1" height="0.4487837965713238" x="5" y="0.5512162034286763" /><rect fill="#2563EB" width="1" height="0.4483798840763827" x="6" y="0.5516201159236174" /><rect fill="#2563EB" width="1" height="0.639004577223528" x="7" y="0.360995422776472" /><rect fill="#2563EB" width="1" height="0.697777802676856" x="8" y="0.30222219732314404" /><rect fill="#2563EB" width="1" height="0.5862073696192388" x="9" y="0.4137926303807612" /><rect fill="#2563EB" width="1" height="0.5386278291026436" x="10" y="0.4613721708973564" /><rect fill="#2563EB" width="1" height="0.6608466901064297" x="11" y="0.3391533098935703" /><rect fill="#2563EB" width="1" height="0.645471747801469" x="12" y="0.354528252198531" /><rect fill="#2563EB" width="1" height="0.6160346850201209" x="13" y="0.38396531497987907" /><rect fill="#2563EB" width="1" height="0.6632513863711472" x="14" y="0.3367486136288528" /><rect fill="#2563EB" width="1" height="0.6602905767262417" x="15" y="0.3397094232737583" /><rect fill="#2563EB" width="1" height="0.5997341804840265" x="16" y="0.4002658195159735" /><rect fill="#2563EB" width="1" height="0.6119767430927291" x="17" y="0.3880232569072709" /><rect fill="#2563EB" width="1" height="0.692298327085147" x="18" y="0.30770167291485295" /><rect fill="#2563EB" width="1" height="0.6214797077377412" x="19" y="0.3785202922622588" /><rect fill="#2563EB" width="1" height="0.5377382526624215" x="20" y="0.4622617473375785" /><rect fill="#2563EB" width="1" height="0.7514595568347391" x="21" y="0.24854044316526092" /><rect fill="#2563EB" width="1" height="0.7449202567622463" x="22" y="0.25507974323775373" /><rect fill="#2563EB" width="1" height="0.5589831870523688" x="23" y="0.4410168129476312" /><rect fill="#2563EB" width="1" height="0.7072885947358639" x="24" y="0.2927114052641361" /><rect fill="#2563EB" width="1" height="0.7707898519689986" x="25" y="0.22921014803100137" /><rect fill="#2563EB" width="1" height="0.628814056266564" x="26" y="0.37118594373343605" /><rect fill="#2563EB" width="1" height="0.7594896547630845" x="27" y="0.2405103452369155" /><rect fill="#2563EB" width="1" height="0.673166161210966" x="28" y="0.32683383878903405" /><rect fill="#2563EB" width="1" height="0.6883527205311508" x="29" y="0.3116472794688492" /><rect fill="#2563EB" width="1" height="0.6174031323708092" x="30" y="0.38259686762919076" /><rect fill="#2563EB" width="1" height="0.6877658151218928" x="31" y="0.31223418487810717" /><rect fill="#2563EB" width="1" height="0.6556993758483656" x="32" y="0.3443006241516344" /><rect fill="#2563EB" width="1" height="0.5702750457532161" x="33" y="0.4297249542467839" /><rect fill="#2563EB" width="1" height="0.6710040253252846" x="34" y="0.3289959746747154" /><rect fill="#2563EB" width="1" height="0.6728531169847021" x="35" y="0.32714688301529793" /><rect fill="#2563EB" width="1" height="0.6450858074480184" x="36" y="0.35491419255198164" /><rect fill="#2563EB" width="1" height="0.5794082187166268" x="37" y="0.42059178128337316" /><rect fill="#2563EB" width="1" height="0.6673673490712363" x="38" y="0.3326326509287637" /><rect fill="#2563EB" width="1" height="0.6593239174447474" x="39" y="0.3406760825552526" /><rect fill="#2563EB" width="1" height="0.5749019975936571" x="40" y="0.4250980024063429" /><rect fill="#2563EB" width="1" height="0.7343677990016406" x="41" y="0.2656322009983594" /><rect fill="#2563EB" width="1" height="0.7906620196335526" x="42" y="0.20933798036644735" /><rect fill="#2563EB" width="1" height="0.6885394459685849" x="43" y="0.31146055403141515" /><rect fill="#2563EB" width="1" height="0.6321088488464341" x="44" y="0.36789115115356585" /><rect fill="#2563EB" width="1" height="0.7903568401085308" x="45" y="0.2096431598914692" /><rect fill="#2563EB" width="1" height="0.7252705724143819" x="46" y="0.27472942758561814" /><rect fill="#2563EB" width="1" height="0.8202585123665573" x="47" y="0.17974148763344266" /><rect fill="#2563EB" width="1" height="0.5570750996823943" x="48" y="0.4429249003176057" /><rect fill="#2563EB" width="1" height="0.7491493298538356" x="49" y="0.25085067014616436" /><rect fill="#2563EB" width="1" height="0.7489132534702599" x="50" y="0.25108674652974006" /><rect fill="#2563EB" width="1" height="0.6929935460731831" x="51" y="0.3070064539268169" /><rect fill="#2563EB" width="1" height="0.6350965630954623" x="52" y="0.36490343690453775" /><rect fill="#2563EB" width="1" height="0.6607847324440352" x="53" y="0.33921526755596476" /><rect fill="#2563EB" width="1" height="0.6736843977021982" x="54" y="0.32631560229780177" /><rect fill="#2563EB" width="1" height="0.7210306115289535" x="55" y="0.27896938847104646" /><rect fill="#2563EB" width="1" height="1" x="56" y="0" /><rect fill="#2563EB" width="1" height="0.9623215620795816" x="57" y="0.03767843792041836" /><rect fill="#2563EB" width="1" height="0.8919221927037347" x="58" y="0.10807780729626526" /><rect fill="#2563EB" width="1" height="0.8427998033536489" x="59" y="0.1572001966463511" /><rect fill="#2563EB" width="1" height="0.9378401975055684" x="60" y="0.06215980249443165" /><rect fill="#2563EB" width="1" height="0.8781088826267105" x="61" y="0.1218911173732895" /><rect fill="#2563EB" width="1" height="0.8418678864450597" x="62" y="0.15813211355494028" /><rect fill="#2563EB" width="1" height="0.8497558216933954" x="63" y="0.15024417830660464" /><rect fill="#2563EB" width="1" height="0.6767092725959295" x="64" y="0.3232907274040705" /><rect fill="#2563EB" width="1" height="0.5683843992387525" x="65" y="0.4316156007612475" /><rect fill="#2563EB" width="1" height="0.6211694591958161" x="66" y="0.3788305408041839" /><rect fill="#2563EB" width="1" height="0.6750392517648285" x="67" y="0.3249607482351715" /><rect fill="#2563EB" width="1" height="0.6394326141972213" x="68" y="0.3605673858027787" /><rect fill="#2563EB" width="1" height="0.6142030722772832" x="69" y="0.3857969277227168" /><rect fill="#2563EB" width="1" height="0.6429335375337542" x="70" y="0.35706646246624585" /><rect fill="#2563EB" width="1" height="0.6459246250039471" x="71" y="0.3540753749960529" /><rect fill="#2563EB" width="1" height="0.5486740024367125" x="72" y="0.4513259975632875" /><rect fill="#2563EB" width="1" height="0.6711328216374955" x="73" y="0.32886717836250445" /><rect fill="#2563EB" width="1" height="0.6693042992712354" x="74" y="0.33069570072876464" /><rect fill="#2563EB" width="1" height="0.5854634461600536" x="75" y="0.41453655383994636" /><rect fill="#2563EB" width="1" height="0.5423058885351075" x="76" y="0.4576941114648925" /><rect fill="#2563EB" width="1" height="0.7604329498399104" x="77" y="0.2395670501600896" /><rect fill="#2563EB" width="1" height="0.7962784123836052" x="78" y="0.2037215876163948" /><rect fill="#2563EB" width="1" height="0.6572836706335015" x="79" y="0.34271632936649854" /><rect fill="#2563EB" width="1" height="0.6952564152016234" x="80" y="0.3047435847983766" /><rect fill="#2563EB" width="1" height="0.7969052293421304" x="81" y="0.20309477065786963" /><rect fill="#2563EB" width="1" height="0.6944950422966898" x="82" y="0.3055049577033102" /><rect fill="#2563EB" width="1" height="0.7240650927169481" x="83" y="0.2759349072830519" /><rect fill="#2563EB" width="1" height="0.32883503098273725" x="84" y="0.6711649690172627" /><rect fill="#2563EB" width="1" height="0.3699338826096052" x="85" y="0.6300661173903948" /><rect fill="#2563EB" width="1" height="0.374917266108731" x="86" y="0.625082733891269" /><rect fill="#2563EB" width="1" height="0.4446633988160252" x="87" y="0.5553366011839749" /><rect fill="#2563EB" width="1" height="0.36228901311103395" x="88" y="0.6377109868889661" /><rect fill="#2563EB" width="1" height="0.38875702770016024" x="89" y="0.6112429722998398" /><rect fill="#2563EB" width="1" height="0.4107035113435228" x="90" y="0.5892964886564772" /><rect fill="#2563EB" width="1" height="0.3515791993541869" x="91" y="0.6484208006458131" /><rect fill="#2563EB" width="1" height="0.40072614760255326" x="92" y="0.5992738523974468" /><rect fill="#2563EB" width="1" height="0.3877517037172643" x="93" y="0.6122482962827357" /><rect fill="#2563EB" width="1" height="0.37223692684924525" x="94" y="0.6277630731507547" /><rect fill="#2563EB" width="1" height="0.4040688446419197" x="95" y="0.5959311553580803" /><rect fill="#2563EB" width="1" height="0.41842971026002207" x="96" y="0.5815702897399779" /><rect fill="#2563EB" width="1" height="0.2430435502311384" x="97" y="0.7569564497688616" /><rect fill="#2563EB" width="1" height="0.06476739604240486" x="98" y="0.9352326039575951" /><rect fill="#2563EB" width="1" height="0.011348193512376545" x="99" y="0.9886518064876234" /></svg>