<svg xmlns="http://www.w3.org/2000/svg" preserveAspectRatio="none" viewBox="0 0 100 1"><rect fill="#2563EB" width="1" height="0.12115966232200995" x="0" y="0.8788403376779901" /><rect fill="#2563EB" width="1" height="0.5288914579907711" x="1" y="0.4711085420092289" /><rect fill="#2563EB" width="1" height="0.635100011721379" x="2" y="0.364899988278621" /><rect fill="#2563EB" width="1" height="0.5239520812202317" x="3" y="0.47604791877976826" /><rect fill="#2563EB" width="1" height="0.291393767852363" x="4" y="0.708606232147637" /><rect fill="#2563EB" width="1" height="0.456189157996576" x="5" y="0.543810842003424" /><rect fill="#2563EB" width="1" height="0.5599481649844382" x="6" y="0.4400518350155618" /><rect fill="#2563EB" width="1" height="0.7314803531094997" x="7" y="0.26851964689050034" /><rect fill="#2563EB" width="1" height="0.6010351748633423" x="8" y="0.39896482513665765" /><rect fill="#2563EB" width="1" height="0.6735026494275009" x="9" y="0.32649735057249907" /><rect fill="#2563EB" width="1" height="0.6167721047784133" x="10" y="0.38322789522158673" /><rect fill="#2563EB" width="1" height="0.7615845662964886" x="11" y="0.23841543370351137" /><rect fill="#2563EB" width="1" height="0.4020020854356576" x="12" y="0.5979979145643424" /><rect fill="#2563EB" width="1" height="0.7644678290738257" x="13" y="0.2355321709261743" /><rect fill="#2563EB" width="1" height="0.5607485213257137" x="14" y="0.43925147867428627" /><rect fill="#2563EB" width="1" height="0.6696020067276075" x="15" y="0.3303979932723925" /><rect fill="#2563EB" width="1" height="0.6146110080328124" x="16" y="0.38538899196718757" /><rect fill="#2563EB" width="1" height="0.7407564207864317" x="17" y="0.25924357921356833" /><rect fill="#2563EB" width="1" height="0.42333987259874045" x="18" y="0.5766601274012595" /><rect fill="#2563EB" width="1" height="0.6447134519567954" x="19" y="0.3552865480432046" /><rect fill="#2563EB" width="1" height="0.6953645661570156" x="20" y="0.3046354338429844" /><rect fill="#2563EB" width="1" height="0.707102973888646" x="21" y="0.29289702611135404" /><rect fill="#2563EB" width="1" height="0.3924381227959047" x="22" y="0.6075618772040954" /><rect fill="#2563EB" width="1" height="0.9021835238611646" x="23" y="0.09781647613883537" /><rect fill="#2563EB" width="1" height="1" x="24" y="0" /><rect fill="#2563EB" width="1" height="0.876210043250263" x="25" y="0.12378995674973703" /><rect fill="#2563EB" width="1" height="0.8357332656825727" x="26" y="0.16426673431742733" /><rect fill="#2563EB" width="1" height="0.6094585057566358" x="27" y="0.39054149424336415" /><rect fill="#2563EB" width="1" height="0.9735990834708549" x="28" y="0.026400916529145113" /><rect fill="#2563EB" width="1" height="0.7498329543200115" x="29" y="0.2501670456799885" /><rect fill="#2563EB" width="1" height="0.4768625113324797" x="30" y="0.5231374886675203" /><rect fill="#2563EB" width="1" height="0.48008285120502564" x="31" y="0.5199171487949743" /><rect fill="#2563EB" width="1" height="0.805510929371884" x="32" y="0.19448907062811605" /><rect fill="#2563EB" width="1" height="0.7591343001773591" x="33" y="0.24086569982264094" /><rect fill="#2563EB" width="1" height="0.6694849065012961" x="34" y="0.3305150934987039" /><rect fill="#2563EB" width="1" height="0.7378339350023124" x="35" y="0.2621660649976876" /><rect fill="#2563EB" width="1" height="0.53948113389815" x="36" y="0.46051886610185" /><rect fill="#2563EB" width="1" height="0.6133520188756113" x="37" y="0.3866479811243887" /><rect fill="#2563EB" width="1" height="0.7564933715538362" x="38" y="0.24350662844616378" /><rect fill="#2563EB" width="1" height="0.6575460163790801" x="39" y="0.34245398362091994" /><rect fill="#2563EB" width="1" height="0.7590162780804248" x="40" y="0.24098372191957518" /><rect fill="#2563EB" width="1" height="0.4735029159193236" x="41" y="0.5264970840806764" /><rect fill="#2563EB" width="1" height="0.5790593551560664" x="42" y="0.42094064484393356" /><rect fill="#2563EB" width="1" height="0.41065209038267786" x="43" y="0.5893479096173222" /><rect fill="#2563EB" width="1" height="0.5895375143240017" x="44" y="0.4104624856759983" /><rect fill="#2563EB" width="1" height="0.6025819986447931" x="45" y="0.3974180013552069" /><rect fill="#2563EB" width="1" height="0.7397181594523315" x="46" y="0.26028184054766845" /><rect fill="#2563EB" width="1" height="0.6185678332810359" x="47" y="0.38143216671896407" /><rect fill="#2563EB" width="1" height="0.9001400023435369" x="48" y="0.09985999765646314" /><rect fill="#2563EB" width="1" height="0.7203744686607774" x="49" y="0.27962553133922263" /><rect fill="#2563EB" width="1" height="0.8248848819281978" x="50" y="0.17511511807180224" /><rect fill="#2563EB" width="1" height="0.8644247919243726" x="51" y="0.1355752080756274" /><rect fill="#2563EB" width="1" height="0.5247720140911979" x="52" y="0.4752279859088021" /><rect fill="#2563EB" width="1" height="0.736333523800931" x="53" y="0.263666476199069" /><rect fill="#2563EB" width="1" height="0.6804137687049617" x="54" y="0.31958623129503827" /><rect fill="#2563EB" width="1" height="0.6348340320745004" x="55" y="0.3651659679254996" /><rect fill="#2563EB" width="1" height="0.8299427325536338" x="56" y="0.17005726744636618" /><rect fill="#2563EB" width="1" height="0.6968393484148409" x="57" y="0.30316065158515915" /><rect fill="#2563EB" width="1" height="0.6870048578342525" x="58" y="0.31299514216574753" /><rect fill="#2563EB" width="1" height="0.4953791353294042" x="59" y="0.5046208646705959" /><rect fill="#2563EB" width="1" height="0.41327018172455315" x="60" y="0.5867298182754468" /><rect fill="#2563EB" width="1" height="0.5575477676502871" x="61" y="0.44245223234971287" /><rect fill="#2563EB" width="1" height="0.47648655004996127" x="62" y="0.5235134499500387" /><rect fill="#2563EB" width="1" height="0.27520120799995834" x="63" y="0.7247987920000416" /><rect fill="#2563EB" width="1" height="0.44062853170182703" x="64" y="0.559371468298173" /><rect fill="#2563EB" width="1" height="0.4328098174395609" x="65" y="0.5671901825604391" /><rect fill="#2563EB" width="1" height="0.5792772717907853" x="66" y="0.42072272820921475" /><rect fill="#2563EB" width="1" height="0.5814005604486749" x="67" y="0.41859943955132506" /><rect fill="#2563EB" width="1" height="0.5236804442105494" x="68" y="0.4763195557894506" /><rect fill="#2563EB" width="1" height="0.47413755482276837" x="69" y="0.5258624451772316" /><rect fill="#2563EB" width="1" height="0.8321606249179496" x="70" y="0.16783937508205038" /><rect fill="#2563EB" width="1" height="0.6633799303840736" x="71" y="0.3366200696159264" /><rect fill="#2563EB" width="1" height="0.47088781317437656" x="72" y="0.5291121868256234" /><rect fill="#2563EB" width="1" height="0.3906439469628398" x="73" y="0.6093560530371602" /><rect fill="#2563EB" width="1" height="0.5627982665089646" x="74" y="0.4372017334910354" /><rect fill="#2563EB" width="1" height="0.44851723622601647" x="75" y="0.5514827637739835" /><rect fill="#2563EB" width="1" height="0.6724497454981507" x="76" y="0.32755025450184927" /><rect fill="#2563EB" width="1" height="0.5264187389070271" x="77" y="0.47358126109297294" /><rect fill="#2563EB" width="1" height="0.8102258189230727" x="78" y="0.18977418107692734" /><rect fill="#2563EB" width="1" height="0.7673580092118486" x="79" y="0.2326419907881514" /><rect fill="#2563EB" width="1" height="0.5378407432697958" x="80" y="0.4621592567302042" /><rect fill="#2563EB" width="1" height="0.6572487023879123" x="81" y="0.34275129761208767" /><rect fill="#2563EB" width="1" height="0.5410888821588095" x="82" y="0.45891111784119054" /><rect fill="#2563EB" width="1" height="0.34394694956941313" x="83" y="0.6560530504305868" /><rect fill="#2563EB" width="1" height="0.6674301948587811" x="84" y="0.3325698051412189" /><rect fill="#2563EB" width="1" height="0.48328360024689343" x="85" y="0.5167163997531066" /><rect fill="#2563EB" width="1" height="0.9144256635806947" x="86" y="0.08557433641930534" /><rect fill="#2563EB" width="1" height="0.7412198235029569" x="87" y="0.2587801764970431" /><rect fill="#2563EB" width="1" height="0.49991749571403477" x="88" y="0.5000825042859652" /><rect fill="#2563EB" width="1" height="0.8807687268370681" x="89" y="0.11923127316293192" /><rect fill="#2563EB" width="1" height="0.7459707305475106" x="90" y="0.2540292694524894" /><rect fill="#2563EB" width="1" height="0.439751868743596" x="91" y="0.560248131256404" /><rect fill="#2563EB" width="1" height="0.4810184260192414" x="92" y="0.5189815739807586" /><rect fill="#2563EB" width="1" height="0.37115239094108315" x="93" y="0.6288476090589168" /><rect fill="#2563EB" width="1" height="0.2575222487886151" x="94" y="0.7424777512113849" /><rect fill="#2563EB" width="1" height="0.5580410774150693" x="95" y="0.44195892258493075" /><rect fill="#2563EB" width="1" height="0.1974376034139981" x="96" y="0.8025623965860019" /><rect fill="#2563EB" width="1" height="0.0727254484148543" x="97" y="0.9272745515851457" /><rect fill="#2563EB" width="1" height="0.007555557421045952" x="98" y="0.992444442578954" /><rect fill="#2563EB" width="1" height="0.0011676336284020747" x="99" y="0.9988323663715979" /></svg>