<svg xmlns="http://www.w3.org/2000/svg" preserveAspectRatio="none" viewBox="0 0 100 1"><rect fill="#2563EB" width="1" height="0.46774102386103616" x="0" y="0.5322589761389638" /><rect fill="#2563EB" width="1" height="0.5640920543680236" x="1" y="0.43590794563197643" /><rect fill="#2563EB" width="1" height="0.6727755405785231" x="2" y="0.32722445942147693" /><rect fill="#2563EB" width="1" height="0.48471004689979486" x="3" y="0.5152899531002051" /><rect fill="#2563EB" width="1" height="0.5090704978782297" x="4" y="0.49092950212177033" /><rect fill="#2563EB" width="1" height="0.627604320787309" x="5" y="0.372395679212691" /><rect fill="#2563EB" width="1" height="0.5202330587277985" x="6" y="0.47976694127220154" /><rect fill="#2563EB" width="1" height="0.6303044314365227" x="7" y="0.3696955685634773" /><rect fill="#2563EB" width="1" height="0.533950622897434" x="8" y="0.466049377102566" /><rect fill="#2563EB" width="1" height="0.5161963922905477" x="9" y="0.4838036077094523" /><rect fill="#2563EB" width="1" height="0.7337262663742323" x="10" y="0.2662737336257677" /><rect fill="#2563EB" width="1" height="0.6789139016513552" x="11" y="0.32108609834864477" /><rect fill="#2563EB" width="1" height="0.801408466705066" x="12" y="0.19859153329493395" /><rect fill="#2563EB" width="1" height="0.6068320070235731" x="13" y="0.3931679929764269" /><rect fill="#2563EB" width="1" height="0.6404659657265973" x="14" y="0.3595340342734027" /><rect fill="#2563EB" width="1" height="0.7003986698067939" x="15" y="0.2996013301932061" /><rect fill="#2563EB" width="1" height="0.6364396117779377" x="16" y="0.36356038822206227" /><rect fill="#2563EB" width="1" height="0.7381819252691245" x="17" y="0.2618180747308755" /><rect fill="#2563EB" width="1" height="0.6550891213090035" x="18" y="0.34491087869099646" /><rect fill="#2563EB" width="1" height="0.6805796645715159" x="19" y="0.31942033542848414" /><rect fill="#2563EB" width="1" height="0.7374112185072484" x="20" y="0.26258878149275156" /><rect fill="#2563EB" width="1" height="0.629444600182439" x="21" y="0.370555399817561" /><rect fill="#2563EB" width="1" height="0.6759230135365037" x="22" y="0.32407698646349625" /><rect fill="#2563EB" width="1" height="0.588095039515797" x="23" y="0.411904960484203" /><rect fill="#2563EB" width="1" height="0.6129378341209902" x="24" y="0.38706216587900977" /><rect fill="#2563EB" width="1" height="0.8194465710318183" x="25" y="0.18055342896818172" /><rect fill="#2563EB" width="1" height="0.6471602806802733" x="26" y="0.3528397193197267" /><rect fill="#2563EB" width="1" height="0.7176373489210686" x="27" y="0.28236265107893144" /><rect fill="#2563EB" width="1" height="0.7029425660235585" x="28" y="0.29705743397644147" /><rect fill="#2563EB" width="1" height="0.6659308146632837" x="29" y="0.33406918533671626" /><rect fill="#2563EB" width="1" height="0.8344506505086161" x="30" y="0.1655493494913839" /><rect fill="#2563EB" width="1" height="0.6963752307283442" x="31" y="0.3036247692716558" /><rect fill="#2563EB" width="1" height="0.8928327542748574" x="32" y="0.10716724572514258" /><rect fill="#2563EB" width="1" height="0.6255599071691288" x="33" y="0.3744400928308712" /><rect fill="#2563EB" width="1" height="0.6461511753137723" x="34" y="0.3538488246862277" /><rect fill="#2563EB" width="1" height="0.7556464500827011" x="35" y="0.24435354991729885" /><rect fill="#2563EB" width="1" height="0.6600414854809152" x="36" y="0.33995851451908476" /><rect fill="#2563EB" width="1" height="0.7753942853346315" x="37" y="0.2246057146653685" /><rect fill="#2563EB" width="1" height="0.9904105162873448" x="38" y="0.009589483712655222" /><rect fill="#2563EB" width="1" height="0.8751702209130464" x="39" y="0.12482977908695359" /><rect fill="#2563EB" width="1" height="0.850241759681714" x="40" y="0.149758240318286" /><rect fill="#2563EB" width="1" height="0.6786773625801661" x="41" y="0.3213226374198339" /><rect fill="#2563EB" width="1" height="1" x="42" y="0" /><rect fill="#2563EB" width="1" height="0.6089836732647206" x="43" y="0.3910163267352794" /><rect fill="#2563EB" width="1" height="0.6476913941242894" x="44" y="0.35230860587571056" /><rect fill="#2563EB" width="1" height="0.7976450725364368" x="45" y="0.2023549274635632" /><rect fill="#2563EB" width="1" height="0.6144599109771878" x="46" y="0.3855400890228122" /><rect fill="#2563EB" width="1" height="0.8134874238746529" x="47" y="0.1865125761253471" /><rect fill="#2563EB" width="1" height="0.9539451458042542" x="48" y="0.04605485419574584" /><rect fill="#2563EB" width="1" height="0.8897457294896749" x="49" y="0.1102542705103251" /><rect fill="#2563EB" width="1" height="0.7907807597673263" x="50" y="0.2092192402326737" /><rect fill="#2563EB" width="1" height="0.7160054102059262" x="51" y="0.28399458979407377" /><rect fill="#2563EB" width="1" height="0.9423078635804695" x="52" y="0.057692136419530526" /><rect fill="#2563EB" width="1" height="0.7319927537920737" x="53" y="0.26800724620792626" /><rect fill="#2563EB" width="1" height="0.6385296363423891" x="54" y="0.36147036365761087" /><rect fill="#2563EB" width="1" height="0.8140515970529217" x="55" y="0.18594840294707826" /><rect fill="#2563EB" width="1" height="0.6702018508128472" x="56" y="0.3297981491871528" /><rect fill="#2563EB" width="1" height="0.8455095221313935" x="57" y="0.15449047786860648" /><rect fill="#2563EB" width="1" height="0.6200316750583075" x="58" y="0.3799683249416925" /><rect fill="#2563EB" width="1" height="0.7233370718547902" x="59" y="0.27666292814520976" /><rect fill="#2563EB" width="1" height="0.8281696356550872" x="60" y="0.17183036434491283" /><rect fill="#2563EB" width="1" height="0.7170346965509243" x="61" y="0.28296530344907567" /><rect fill="#2563EB" width="1" height="0.8556650099030284" x="62" y="0.1443349900969716" /><rect fill="#2563EB" width="1" height="0.7276956011024251" x="63" y="0.27230439889757485" /><rect fill="#2563EB" width="1" height="0.7461073857174829" x="64" y="0.2538926142825171" /><rect fill="#2563EB" width="1" height="0.8375803972128912" x="65" y="0.16241960278710876" /><rect fill="#2563EB" width="1" height="0.6570908938812544" x="66" y="0.3429091061187456" /><rect fill="#2563EB" width="1" height="0.808745248986321" x="67" y="0.19125475101367895" /><rect fill="#2563EB" width="1" height="0.5280810359770112" x="68" y="0.47191896402298883" /><rect fill="#2563EB" width="1" height="0.6902637413842901" x="69" y="0.30973625861570986" /><rect fill="#2563EB" width="1" height="0.4943540788375529" x="70" y="0.5056459211624471" /><rect fill="#2563EB" width="1" height="0.43252708776335086" x="71" y="0.5674729122366491" /><rect fill="#2563EB" width="1" height="0.39554344539978303" x="72" y="0.604456554600217" /><rect fill="#2563EB" width="1" height="0.3184105941999017" x="73" y="0.6815894058000983" /><rect fill="#2563EB" width="1" height="0.403822587223026" x="74" y="0.596177412776974" /><rect fill="#2563EB" width="1" height="0.3450926730744158" x="75" y="0.6549073269255842" /><rect fill="#2563EB" width="1" height="0.3827903800964888" x="76" y="0.6172096199035112" /><rect fill="#2563EB" width="1" height="0.34094134941567517" x="77" y="0.6590586505843248" /><rect fill="#2563EB" width="1" height="0.3725260939799976" x="78" y="0.6274739060200024" /><rect fill="#2563EB" width="1" height="0.37424718199028023" x="79" y="0.6257528180097198" /><rect fill="#2563EB" width="1" height="0.37761040218425557" x="80" y="0.6223895978157444" /><rect fill="#2563EB" width="1" height="0.42227452762595874" x="81" y="0.5777254723740413" /><rect fill="#2563EB" width="1" height="0.39411410598732705" x="82" y="0.605885894012673" /><rect fill="#2563EB" width="1" height="0.32278480460959047" x="83" y="0.6772151953904095" /><rect fill="#2563EB" width="1" height="0.4011499078292775" x="84" y="0.5988500921707225" /><rect fill="#2563EB" width="1" height="0.3444331148643975" x="85" y="0.6555668851356025" /><rect fill="#2563EB" width="1" height="0.3679637815266852" x="86" y="0.6320362184733148" /><rect fill="#2563EB" width="1" height="0.3668067060913817" x="87" y="0.6331932939086182" /><rect fill="#2563EB" width="1" height="0.3327500904508585" x="88" y="0.6672499095491415" /><rect fill="#2563EB" width="1" height="0.53852965279813" x="89" y="0.46147034720186997" /><rect fill="#2563EB" width="1" height="0.6368263896269538" x="90" y="0.3631736103730462" /><rect fill="#2563EB" width="1" height="0.04081861268521623" x="91" y="0.9591813873147838" /><rect fill="#2563EB" width="1" height="0.0010077289330395346" x="92" y="0.9989922710669604" /><rect fill="#2563EB" width="1" height="0.000020057584414628264" x="93" y="0.9999799424155854" /><rect fill="#2563EB" width="1" height="0.00000249193662895774" x="94" y="0.9999975080633711" /><rect fill="#2563EB" width="1" height="2.805296528964125e-7" x="95" y="0.999999719470347" /><rect fill="#2563EB" width="1" height="9.811479077132851e-8" x="96" y="0.9999999018852093" /><rect fill="#2563EB" width="1" height="0" x="97" y="1" /><rect fill="#2563EB" width="1" height="0" x="98" y="1" /><rect fill="#2563EB" width="1" height="0" x="99" y="1" /></svg>