<svg xmlns="http://www.w3.org/2000/svg" preserveAspectRatio="none" viewBox="0 0 100 1"><rect fill="#2563EB" width="1" height="0.48576440398407017" x="0" y="0.5142355960159298" /><rect fill="#2563EB" width="1" height="0.47140426438573285" x="1" y="0.5285957356142672" /><rect fill="#2563EB" width="1" height="0.4830834896826319" x="2" y="0.5169165103173681" /><rect fill="#2563EB" width="1" height="0.5508442672247946" x="3" y="0.4491557327752054" /><rect fill="#2563EB" width="1" height="0.5684601667854448" x="4" y="0.43153983321455525" /><rect fill="#2563EB" width="1" height="0.5739337731350423" x="5" y="0.42606622686495765" /><rect fill="#2563EB" width="1" height="0.5652063081884969" x="6" y="0.43479369181150307" /><rect fill="#2563EB" width="1" height="0.6579252368909129" x="7" y="0.34207476310908713" /><rect fill="#2563EB" width="1" height="0.5607710918609278" x="8" y="0.4392289081390722" /><rect fill="#2563EB" width="1" height="0.5559424710933418" x="9" y="0.44405752890665817" /><rect fill="#2563EB" width="1" height="0.5520746326240983" x="10" y="0.4479253673759017" /><rect fill="#2563EB" width="1" height="0.5967411603267343" x="11" y="0.4032588396732657" /><rect fill="#2563EB" width="1" height="0.6596082882148175" x="12" y="0.34039171178518246" /><rect fill="#2563EB" width="1" height="0.5884527370574005" x="13" y="0.41154726294259947" /><rect fill="#2563EB" width="1" height="0.5382760027071052" x="14" y="0.4617239972928948" /><rect fill="#2563EB" width="1" height="0.5303568336053155" x="15" y="0.4696431663946845" /><rect fill="#2563EB" width="1" height="0.5183815222633229" x="16" y="0.4816184777366771" /><rect fill="#2563EB" width="1" height="0.49810192362662886" x="17" y="0.5018980763733711" /><rect fill="#2563EB" width="1" height="0.5369401165594644" x="18" y="0.4630598834405356" /><rect fill="#2563EB" width="1" height="0.5215265226857234" x="19" y="0.4784734773142766" /><rect fill="#2563EB" width="1" height="0.5037480554731769" x="20" y="0.4962519445268231" /><rect fill="#2563EB" width="1" height="0.4656657665481408" x="21" y="0.5343342334518593" /><rect fill="#2563EB" width="1" height="0.6210495949805309" x="22" y="0.3789504050194691" /><rect fill="#2563EB" width="1" height="0.5110415470366834" x="23" y="0.48895845296331664" /><rect fill="#2563EB" width="1" height="0.5031118907273323" x="24" y="0.4968881092726677" /><rect fill="#2563EB" width="1" height="0.5220650484809296" x="25" y="0.4779349515190704" /><rect fill="#2563EB" width="1" height="0.496718796820521" x="26" y="0.503281203179479" /><rect fill="#2563EB" width="1" height="0.4749002940289086" x="27" y="0.5250997059710913" /><rect fill="#2563EB" width="1" height="0.5028672613033197" x="28" y="0.4971327386966803" /><rect fill="#2563EB" width="1" height="0.6397760419497738" x="29" y="0.3602239580502262" /><rect fill="#2563EB" width="1" height="0.5619418919805758" x="30" y="0.43805810801942424" /><rect fill="#2563EB" width="1" height="0.5367404050917507" x="31" y="0.4632595949082493" /><rect fill="#2563EB" width="1" height="0.4961151744420645" x="32" y="0.5038848255579356" /><rect fill="#2563EB" width="1" height="0.45735745468924377" x="33" y="0.5426425453107562" /><rect fill="#2563EB" width="1" height="0.5008632675642302" x="34" y="0.49913673243576984" /><rect fill="#2563EB" width="1" height="0.5379708284798963" x="35" y="0.4620291715201037" /><rect fill="#2563EB" width="1" height="0.5937509107120225" x="36" y="0.40624908928797754" /><rect fill="#2563EB" width="1" height="0.6662692525432338" x="37" y="0.33373074745676623" /><rect fill="#2563EB" width="1" height="0.6221331753355004" x="38" y="0.3778668246644996" /><rect fill="#2563EB" width="1" height="0.5875719753258009" x="39" y="0.41242802467419915" /><rect fill="#2563EB" width="1" height="0.5419483015500132" x="40" y="0.45805169844998683" /><rect fill="#2563EB" width="1" height="0.5910053969897316" x="41" y="0.40899460301026835" /><rect fill="#2563EB" width="1" height="0.625083354165036" x="42" y="0.374916645834964" /><rect fill="#2563EB" width="1" height="0.6153879543525451" x="43" y="0.3846120456474549" /><rect fill="#2563EB" width="1" height="0.49566763821221177" x="44" y="0.5043323617877882" /><rect fill="#2563EB" width="1" height="0.5418810192752486" x="45" y="0.45811898072475143" /><rect fill="#2563EB" width="1" height="0.5507665062928024" x="46" y="0.44923349370719756" /><rect fill="#2563EB" width="1" height="0.4917035003106741" x="47" y="0.5082964996893259" /><rect fill="#2563EB" width="1" height="0.6035783672956992" x="48" y="0.39642163270430075" /><rect fill="#2563EB" width="1" height="0.536137344302085" x="49" y="0.46386265569791496" /><rect fill="#2563EB" width="1" height="0.5503993070721078" x="50" y="0.4496006929278922" /><rect fill="#2563EB" width="1" height="0.49797620585909524" x="51" y="0.5020237941409047" /><rect fill="#2563EB" width="1" height="0.7603508142074634" x="52" y="0.23964918579253658" /><rect fill="#2563EB" width="1" height="0.49401889043893543" x="53" y="0.5059811095610646" /><rect fill="#2563EB" width="1" height="0.5145563601677351" x="54" y="0.4854436398322649" /><rect fill="#2563EB" width="1" height="0.500740198832109" x="55" y="0.49925980116789104" /><rect fill="#2563EB" width="1" height="0.5309644294435326" x="56" y="0.4690355705564674" /><rect fill="#2563EB" width="1" height="0.528563989776654" x="57" y="0.471436010223346" /><rect fill="#2563EB" width="1" height="0.5327429665847654" x="58" y="0.4672570334152346" /><rect fill="#2563EB" width="1" height="0.5687491056319611" x="59" y="0.4312508943680389" /><rect fill="#2563EB" width="1" height="0.5392088763520579" x="60" y="0.46079112364794206" /><rect fill="#2563EB" width="1" height="0.49070892175995195" x="61" y="0.509291078240048" /><rect fill="#2563EB" width="1" height="0.48422523456292793" x="62" y="0.5157747654370721" /><rect fill="#2563EB" width="1" height="0.4960159686849279" x="63" y="0.5039840313150721" /><rect fill="#2563EB" width="1" height="0.5839755600502299" x="64" y="0.4160244399497701" /><rect fill="#2563EB" width="1" height="0.5526213541095725" x="65" y="0.44737864589042753" /><rect fill="#2563EB" width="1" height="0.5573214751148935" x="66" y="0.4426785248851065" /><rect fill="#2563EB" width="1" height="0.6626658898282957" x="67" y="0.33733411017170434" /><rect fill="#2563EB" width="1" height="0.4975184705656184" x="68" y="0.5024815294343816" /><rect fill="#2563EB" width="1" height="0.8522138309799102" x="69" y="0.14778616902008979" /><rect fill="#2563EB" width="1" height="0.4951001535937918" x="70" y="0.5048998464062082" /><rect fill="#2563EB" width="1" height="0.5911360812656726" x="71" y="0.40886391873432737" /><rect fill="#2563EB" width="1" height="0.6227838278711568" x="72" y="0.3772161721288432" /><rect fill="#2563EB" width="1" height="0.5620417044193303" x="73" y="0.4379582955806697" /><rect fill="#2563EB" width="1" height="0.4972867050197274" x="74" y="0.5027132949802726" /><rect fill="#2563EB" width="1" height="0.562153999043384" x="75" y="0.43784600095661597" /><rect fill="#2563EB" width="1" height="0.5084231516321603" x="76" y="0.49157684836783966" /><rect fill="#2563EB" width="1" height="0.5192253688408698" x="77" y="0.4807746311591302" /><rect fill="#2563EB" width="1" height="0.8877780894695976" x="78" y="0.11222191053040242" /><rect fill="#2563EB" width="1" height="0.6586439431404755" x="79" y="0.3413560568595245" /><rect fill="#2563EB" width="1" height="0.49734284555999697" x="80" y="0.502657154440003" /><rect fill="#2563EB" width="1" height="0.5358647585212603" x="81" y="0.46413524147873975" /><rect fill="#2563EB" width="1" height="0.5243456900431472" x="82" y="0.47565430995685276" /><rect fill="#2563EB" width="1" height="1" x="83" y="0" /><rect fill="#2563EB" width="1" height="0.5424927580189479" x="84" y="0.4575072419810521" /><rect fill="#2563EB" width="1" height="0.49348120742736407" x="85" y="0.506518792572636" /><rect fill="#2563EB" width="1" height="0.505334187964053" x="86" y="0.49466581203594695" /><rect fill="#2563EB" width="1" height="0.6455710142525146" x="87" y="0.3544289857474854" /><rect fill="#2563EB" width="1" height="0.60297238392372" x="88" y="0.39702761607628" /><rect fill="#2563EB" width="1" height="0.5301409804320443" x="89" y="0.4698590195679557" /><rect fill="#2563EB" width="1" height="0.560737543159843" x="90" y="0.43926245684015697" /><rect fill="#2563EB" width="1" height="0.5052455393264826" x="91" y="0.49475446067351736" /><rect fill="#2563EB" width="1" height="0.13272166546677816" x="92" y="0.8672783345332218" /><rect fill="#2563EB" width="1" height="0.0011426331315255748" x="93" y="0.9988573668684744" /><rect fill="#2563EB" width="1" height="0.00013288676235264662" x="94" y="0.9998671132376473" /><rect fill="#2563EB" width="1" height="0.00001269968309055755" x="95" y="0.9999873003169094" /><rect fill="#2563EB" width="1" height="7.814840415287386e-8" x="96" y="0.9999999218515958" /><rect fill="#2563EB" width="1" height="0" x="97" y="1" /><rect fill="#2563EB" width="1" height="0" x="98" y="1" /><rect fill="#2563EB" width="1" height="0" x="99" y="1" /></svg>