<svg xmlns="http://www.w3.org/2000/svg" preserveAspectRatio="none" viewBox="0 0 100 1"><rect fill="#2563EB" width="1" height="0.042379209801261135" x="0" y="0.9576207901987389" /><rect fill="#2563EB" width="1" height="0.1602638565554337" x="1" y="0.8397361434445663" /><rect fill="#2563EB" width="1" height="0.18097048268592833" x="2" y="0.8190295173140717" /><rect fill="#2563EB" width="1" height="0.16087634907212403" x="3" y="0.839123650927876" /><rect fill="#2563EB" width="1" height="0.20991632026785595" x="4" y="0.790083679732144" /><rect fill="#2563EB" width="1" height="0.21554177486439557" x="5" y="0.7844582251356045" /><rect fill="#2563EB" width="1" height="0.2711505488955095" x="6" y="0.7288494511044905" /><rect fill="#2563EB" width="1" height="0.28882659734779925" x="7" y="0.7111734026522007" /><rect fill="#2563EB" width="1" height="0.33163237079906827" x="8" y="0.6683676292009317" /><rect fill="#2563EB" width="1" height="0.4049737955029515" x="9" y="0.5950262044970485" /><rect fill="#2563EB" width="1" height="0.7468299209827587" x="10" y="0.2531700790172413" /><rect fill="#2563EB" width="1" height="0.6411363404322156" x="11" y="0.35886365956778443" /><rect fill="#2563EB" width="1" height="0.6372531996895593" x="12" y="0.3627468003104407" /><rect fill="#2563EB" width="1" height="0.7503232305966656" x="13" y="0.2496767694033344" /><rect fill="#2563EB" width="1" height="0.6653659111396929" x="14" y="0.3346340888603071" /><rect fill="#2563EB" width="1" height="0.6159314608953113" x="15" y="0.38406853910468874" /><rect fill="#2563EB" width="1" height="0.5927981788276453" x="16" y="0.4072018211723547" /><rect fill="#2563EB" width="1" height="0.6083118284825438" x="17" y="0.39168817151745616" /><rect fill="#2563EB" width="1" height="0.7721916681002658" x="18" y="0.22780833189973415" /><rect fill="#2563EB" width="1" height="0.6734610230456268" x="19" y="0.3265389769543732" /><rect fill="#2563EB" width="1" height="0.6561843844516108" x="20" y="0.34381561554838924" /><rect fill="#2563EB" width="1" height="0.6338918525611605" x="21" y="0.36610814743883946" /><rect fill="#2563EB" width="1" height="0.7026592604237527" x="22" y="0.2973407395762473" /><rect fill="#2563EB" width="1" height="0.7243815119986124" x="23" y="0.27561848800138755" /><rect fill="#2563EB" width="1" height="0.6464444777210433" x="24" y="0.3535555222789567" /><rect fill="#2563EB" width="1" height="0.7298594315793566" x="25" y="0.2701405684206434" /><rect fill="#2563EB" width="1" height="0.6370079394594137" x="26" y="0.3629920605405863" /><rect fill="#2563EB" width="1" height="0.8396959630042244" x="27" y="0.16030403699577556" /><rect fill="#2563EB" width="1" height="0.8790200893863653" x="28" y="0.12097991061363467" /><rect fill="#2563EB" width="1" height="0.611936372120748" x="29" y="0.38806362787925197" /><rect fill="#2563EB" width="1" height="0.6512169621486912" x="30" y="0.3487830378513088" /><rect fill="#2563EB" width="1" height="0.6395522736074152" x="31" y="0.3604477263925848" /><rect fill="#2563EB" width="1" height="0.6436792960123836" x="32" y="0.3563207039876164" /><rect fill="#2563EB" width="1" height="0.7282072745659096" x="33" y="0.2717927254340904" /><rect fill="#2563EB" width="1" height="0.7616654100933737" x="34" y="0.23833458990662626" /><rect fill="#2563EB" width="1" height="0.8610397152186402" x="35" y="0.1389602847813598" /><rect fill="#2563EB" width="1" height="0.8976994891017315" x="36" y="0.10230051089826853" /><rect fill="#2563EB" width="1" height="0.7231446874636094" x="37" y="0.2768553125363906" /><rect fill="#2563EB" width="1" height="0.7037908598476461" x="38" y="0.2962091401523539" /><rect fill="#2563EB" width="1" height="0.6571960688449409" x="39" y="0.34280393115505914" /><rect fill="#2563EB" width="1" height="0.6936113004864195" x="40" y="0.3063886995135805" /><rect fill="#2563EB" width="1" height="0.6647702389648005" x="41" y="0.3352297610351995" /><rect fill="#2563EB" width="1" height="0.6152925646387265" x="42" y="0.3847074353612735" /><rect fill="#2563EB" width="1" height="0.7697999143969003" x="43" y="0.23020008560309968" /><rect fill="#2563EB" width="1" height="0.8508717636843873" x="44" y="0.14912823631561267" /><rect fill="#2563EB" width="1" height="0.8614849598955958" x="45" y="0.13851504010440419" /><rect fill="#2563EB" width="1" height="0.7848618137217891" x="46" y="0.2151381862782109" /><rect fill="#2563EB" width="1" height="0.8270863094526169" x="47" y="0.17291369054738315" /><rect fill="#2563EB" width="1" height="0.8597397328480733" x="48" y="0.14026026715192674" /><rect fill="#2563EB" width="1" height="0.8623440689510594" x="49" y="0.13765593104894058" /><rect fill="#2563EB" width="1" height="0.8444785237438853" x="50" y="0.15552147625611468" /><rect fill="#2563EB" width="1" height="0.8813857327218135" x="51" y="0.11861426727818647" /><rect fill="#2563EB" width="1" height="0.8283212794344238" x="52" y="0.1716787205655762" /><rect fill="#2563EB" width="1" height="0.8925941780067156" x="53" y="0.10740582199328441" /><rect fill="#2563EB" width="1" height="0.8585249287971617" x="54" y="0.1414750712028383" /><rect fill="#2563EB" width="1" height="0.8662623678281943" x="55" y="0.13373763217180568" /><rect fill="#2563EB" width="1" height="0.9237425004870785" x="56" y="0.07625749951292149" /><rect fill="#2563EB" width="1" height="0.8543467719181264" x="57" y="0.14565322808187364" /><rect fill="#2563EB" width="1" height="0.9061683892938578" x="58" y="0.09383161070614221" /><rect fill="#2563EB" width="1" height="0.8204583132952822" x="59" y="0.17954168670471782" /><rect fill="#2563EB" width="1" height="0.9291993545544505" x="60" y="0.07080064544554954" /><rect fill="#2563EB" width="1" height="0.8536991126618662" x="61" y="0.14630088733813384" /><rect fill="#2563EB" width="1" height="0.8220739120257922" x="62" y="0.17792608797420784" /><rect fill="#2563EB" width="1" height="0.8625561203982042" x="63" y="0.13744387960179583" /><rect fill="#2563EB" width="1" height="0.9443038746026369" x="64" y="0.05569612539736313" /><rect fill="#2563EB" width="1" height="0.9348861066477291" x="65" y="0.06511389335227091" /><rect fill="#2563EB" width="1" height="0.8600233910817282" x="66" y="0.1399766089182718" /><rect fill="#2563EB" width="1" height="0.7345003470481795" x="67" y="0.26549965295182054" /><rect fill="#2563EB" width="1" height="0.8285048452445092" x="68" y="0.17149515475549082" /><rect fill="#2563EB" width="1" height="0.8360706369407594" x="69" y="0.16392936305924055" /><rect fill="#2563EB" width="1" height="0.8312106411842494" x="70" y="0.16878935881575063" /><rect fill="#2563EB" width="1" height="0.9039850430099302" x="71" y="0.09601495699006979" /><rect fill="#2563EB" width="1" height="0.971044529726578" x="72" y="0.028955470273422046" /><rect fill="#2563EB" width="1" height="0.9799771413924171" x="73" y="0.020022858607582905" /><rect fill="#2563EB" width="1" height="0.8929476612829287" x="74" y="0.10705233871707132" /><rect fill="#2563EB" width="1" height="0.8587593442458396" x="75" y="0.14124065575416045" /><rect fill="#2563EB" width="1" height="0.7079402568636658" x="76" y="0.2920597431363342" /><rect fill="#2563EB" width="1" height="0.8339065064193336" x="77" y="0.16609349358066638" /><rect fill="#2563EB" width="1" height="0.8448730378507783" x="78" y="0.15512696214922173" /><rect fill="#2563EB" width="1" height="0.8206660900179332" x="79" y="0.17933390998206677" /><rect fill="#2563EB" width="1" height="0.7911309358985744" x="80" y="0.20886906410142558" /><rect fill="#2563EB" width="1" height="0.9642051141169918" x="81" y="0.035794885883008165" /><rect fill="#2563EB" width="1" height="1" x="82" y="0" /><rect fill="#2563EB" width="1" height="0.9475044628496865" x="83" y="0.05249553715031352" /><rect fill="#2563EB" width="1" height="0.9007181746476637" x="84" y="0.09928182535233632" /><rect fill="#2563EB" width="1" height="0.8847078659223782" x="85" y="0.11529213407762184" /><rect fill="#2563EB" width="1" height="0.9336291396909779" x="86" y="0.06637086030902206" /><rect fill="#2563EB" width="1" height="0.8659900836324996" x="87" y="0.13400991636750037" /><rect fill="#2563EB" width="1" height="0.9118610355343849" x="88" y="0.08813896446561509" /><rect fill="#2563EB" width="1" height="0.8558244051442787" x="89" y="0.1441755948557213" /><rect fill="#2563EB" width="1" height="0.9178812893541813" x="90" y="0.08211871064581866" /><rect fill="#2563EB" width="1" height="0.9603859296837877" x="91" y="0.039614070316212335" /><rect fill="#2563EB" width="1" height="0.6177298732715375" x="92" y="0.3822701267284625" /><rect fill="#2563EB" width="1" height="0.1182905023717604" x="93" y="0.8817094976282396" /><rect fill="#2563EB" width="1" height="0.041459623746453574" x="94" y="0.9585403762535464" /><rect fill="#2563EB" width="1" height="0.017439176284121193" x="95" y="0.9825608237158788" /><rect fill="#2563EB" width="1" height="0.007746632629909959" x="96" y="0.9922533673700901" /><rect fill="#2563EB" width="1" height="0.0033045994755239207" x="97" y="0.996695400524476" /><rect fill="#2563EB" width="1" height="0.0012208128664524056" x="98" y="0.9987791871335476" /><rect fill="#2563EB" width="1" height="0.00029584170715110555" x="99" y="0.9997041582928489" /></svg>