<svg xmlns="http://www.w3.org/2000/svg" preserveAspectRatio="none" viewBox="0 0 100 1"><rect fill="#2563EB" width="1" height="0.7782331961511084" x="0" y="0.22176680384889158" /><rect fill="#2563EB" width="1" height="0.586357560306359" x="1" y="0.413642439693641" /><rect fill="#2563EB" width="1" height="0.4994794171913292" x="2" y="0.5005205828086707" /><rect fill="#2563EB" width="1" height="0.4595963154099056" x="3" y="0.5404036845900944" /><rect fill="#2563EB" width="1" height="0.3996261593820756" x="4" y="0.6003738406179244" /><rect fill="#2563EB" width="1" height="0.45354824988796094" x="5" y="0.5464517501120391" /><rect fill="#2563EB" width="1" height="0.9230747828416632" x="6" y="0.07692521715833678" /><rect fill="#2563EB" width="1" height="0.8603841831954863" x="7" y="0.13961581680451374" /><rect fill="#2563EB" width="1" height="0.6554624694605767" x="8" y="0.34453753053942326" /><rect fill="#2563EB" width="1" height="0.5253415247024242" x="9" y="0.47465847529757577" /><rect fill="#2563EB" width="1" height="0.3814451379994126" x="10" y="0.6185548620005874" /><rect fill="#2563EB" width="1" height="0.3987485116325695" x="11" y="0.6012514883674305" /><rect fill="#2563EB" width="1" height="0.7388496782974777" x="12" y="0.2611503217025223" /><rect fill="#2563EB" width="1" height="0.8075447105664924" x="13" y="0.19245528943350765" /><rect fill="#2563EB" width="1" height="0.6417975096320279" x="14" y="0.35820249036797214" /><rect fill="#2563EB" width="1" height="0.7896382680191074" x="15" y="0.21036173198089259" /><rect fill="#2563EB" width="1" height="0.5162127784108955" x="16" y="0.4837872215891045" /><rect fill="#2563EB" width="1" height="0.5809413950262277" x="17" y="0.41905860497377234" /><rect fill="#2563EB" width="1" height="0.5238269019525255" x="18" y="0.47617309804747454" /><rect fill="#2563EB" width="1" height="0.7119924373601224" x="19" y="0.2880075626398776" /><rect fill="#2563EB" width="1" height="0.4045370461339076" x="20" y="0.5954629538660924" /><rect fill="#2563EB" width="1" height="0.3880700801433342" x="21" y="0.6119299198566658" /><rect fill="#2563EB" width="1" height="0.3080291116895723" x="22" y="0.6919708883104276" /><rect fill="#2563EB" width="1" height="0.3690427678264818" x="23" y="0.6309572321735182" /><rect fill="#2563EB" width="1" height="0.411129208331175" x="24" y="0.5888707916688249" /><rect fill="#2563EB" width="1" height="0.9501402139949452" x="25" y="0.04985978600505481" /><rect fill="#2563EB" width="1" height="0.9490839480561121" x="26" y="0.05091605194388793" /><rect fill="#2563EB" width="1" height="0.6686578143562228" x="27" y="0.33134218564377715" /><rect fill="#2563EB" width="1" height="0.6343724117957963" x="28" y="0.3656275882042037" /><rect fill="#2563EB" width="1" height="0.8331969786307051" x="29" y="0.16680302136929492" /><rect fill="#2563EB" width="1" height="1" x="30" y="0" /><rect fill="#2563EB" width="1" height="0.7671828757167993" x="31" y="0.23281712428320067" /><rect fill="#2563EB" width="1" height="0.649027831799988" x="32" y="0.350972168200012" /><rect fill="#2563EB" width="1" height="0.4457491734426694" x="33" y="0.5542508265573306" /><rect fill="#2563EB" width="1" height="0.29124684697164677" x="34" y="0.7087531530283533" /><rect fill="#2563EB" width="1" height="0.3333798855443816" x="35" y="0.6666201144556184" /><rect fill="#2563EB" width="1" height="0.4999553286593161" x="36" y="0.5000446713406839" /><rect fill="#2563EB" width="1" height="0.7914303577910019" x="37" y="0.2085696422089981" /><rect fill="#2563EB" width="1" height="0.5303614184876314" x="38" y="0.4696385815123686" /><rect fill="#2563EB" width="1" height="0.4616625813990848" x="39" y="0.5383374186009152" /><rect fill="#2563EB" width="1" height="0.9194803677626867" x="40" y="0.08051963223731329" /><rect fill="#2563EB" width="1" height="0.6170738098305893" x="41" y="0.38292619016941065" /><rect fill="#2563EB" width="1" height="0.5582257184544656" x="42" y="0.44177428154553444" /><rect fill="#2563EB" width="1" height="0.8001949189252193" x="43" y="0.19980508107478068" /><rect fill="#2563EB" width="1" height="0.7134405303682966" x="44" y="0.2865594696317034" /><rect fill="#2563EB" width="1" height="0.593081682047848" x="45" y="0.40691831795215205" /><rect fill="#2563EB" width="1" height="0.8189768188367531" x="46" y="0.1810231811632469" /><rect fill="#2563EB" width="1" height="0.5176197525573942" x="47" y="0.48238024744260577" /><rect fill="#2563EB" width="1" height="0.7159806449150264" x="48" y="0.28401935508497356" /><rect fill="#2563EB" width="1" height="0.48314931727438176" x="49" y="0.5168506827256183" /><rect fill="#2563EB" width="1" height="0.954259253951332" x="50" y="0.04574074604866796" /><rect fill="#2563EB" width="1" height="0.6179245961203571" x="51" y="0.3820754038796429" /><rect fill="#2563EB" width="1" height="0.7158855421198066" x="52" y="0.2841144578801934" /><rect fill="#2563EB" width="1" height="0.48986006520299596" x="53" y="0.510139934797004" /><rect fill="#2563EB" width="1" height="0.45210990236637605" x="54" y="0.547890097633624" /><rect fill="#2563EB" width="1" height="0.3878604225024359" x="55" y="0.6121395774975641" /><rect fill="#2563EB" width="1" height="0.7817099414815549" x="56" y="0.21829005851844507" /><rect fill="#2563EB" width="1" height="0.8920335759396453" x="57" y="0.10796642406035473" /><rect fill="#2563EB" width="1" height="0.7203036467149345" x="58" y="0.2796963532850655" /><rect fill="#2563EB" width="1" height="0.8806035624793047" x="59" y="0.11939643752069529" /><rect fill="#2563EB" width="1" height="0.5570774048364059" x="60" y="0.4429225951635941" /><rect fill="#2563EB" width="1" height="0.5209327870284771" x="61" y="0.4790672129715229" /><rect fill="#2563EB" width="1" height="0.6808833671249721" x="62" y="0.3191166328750279" /><rect fill="#2563EB" width="1" height="0.5904510600742773" x="63" y="0.4095489399257227" /><rect fill="#2563EB" width="1" height="0.7205575651350347" x="64" y="0.27944243486496534" /><rect fill="#2563EB" width="1" height="0.5753622848238676" x="65" y="0.42463771517613236" /><rect fill="#2563EB" width="1" height="0.6116973896780826" x="66" y="0.3883026103219174" /><rect fill="#2563EB" width="1" height="0.5237898548199718" x="67" y="0.47621014518002824" /><rect fill="#2563EB" width="1" height="0.6452867996433049" x="68" y="0.35471320035669507" /><rect fill="#2563EB" width="1" height="0.7834920488697616" x="69" y="0.21650795113023835" /><rect fill="#2563EB" width="1" height="0.6325592314379478" x="70" y="0.3674407685620522" /><rect fill="#2563EB" width="1" height="0.8969927466946689" x="71" y="0.10300725330533111" /><rect fill="#2563EB" width="1" height="0.3588196588746986" x="72" y="0.6411803411253014" /><rect fill="#2563EB" width="1" height="0.4463850877399514" x="73" y="0.5536149122600487" /><rect fill="#2563EB" width="1" height="0.3446659663994964" x="74" y="0.6553340336005036" /><rect fill="#2563EB" width="1" height="0.9576012329210989" x="75" y="0.04239876707890111" /><rect fill="#2563EB" width="1" height="0.5869737538801288" x="76" y="0.41302624611987115" /><rect fill="#2563EB" width="1" height="0.7309200997837636" x="77" y="0.2690799002162364" /><rect fill="#2563EB" width="1" height="0.4738620523574447" x="78" y="0.5261379476425553" /><rect fill="#2563EB" width="1" height="0.4527945332274092" x="79" y="0.5472054667725907" /><rect fill="#2563EB" width="1" height="0.3866338854664482" x="80" y="0.6133661145335518" /><rect fill="#2563EB" width="1" height="0.8158547935416087" x="81" y="0.18414520645839128" /><rect fill="#2563EB" width="1" height="0.902814188986896" x="82" y="0.09718581101310397" /><rect fill="#2563EB" width="1" height="0.7272975846828044" x="83" y="0.27270241531719563" /><rect fill="#2563EB" width="1" height="0.8770471017745738" x="84" y="0.12295289822542621" /><rect fill="#2563EB" width="1" height="0.5642107651056864" x="85" y="0.43578923489431365" /><rect fill="#2563EB" width="1" height="0.5338725563856555" x="86" y="0.46612744361434455" /><rect fill="#2563EB" width="1" height="0.7876492971207867" x="87" y="0.21235070287921332" /><rect fill="#2563EB" width="1" height="0.5765873482121615" x="88" y="0.4234126517878385" /><rect fill="#2563EB" width="1" height="0.688159655768352" x="89" y="0.31184034423164797" /><rect fill="#2563EB" width="1" height="0.5942943908755249" x="90" y="0.40570560912447506" /><rect fill="#2563EB" width="1" height="0.6160279581025696" x="91" y="0.3839720418974304" /><rect fill="#2563EB" width="1" height="0.5151460371502714" x="92" y="0.4848539628497286" /><rect fill="#2563EB" width="1" height="0.42850376041148114" x="93" y="0.5714962395885188" /><rect fill="#2563EB" width="1" height="0.5355555371566233" x="94" y="0.4644444628433767" /><rect fill="#2563EB" width="1" height="0.5803209271736514" x="95" y="0.41967907282634864" /><rect fill="#2563EB" width="1" height="0.8781747349628876" x="96" y="0.12182526503711244" /><rect fill="#2563EB" width="1" height="0.3139380374436292" x="97" y="0.6860619625563709" /><rect fill="#2563EB" width="1" height="0.19678908709223714" x="98" y="0.8032109129077629" /><rect fill="#2563EB" width="1" height="0.02773768460855973" x="99" y="0.9722623153914403" /></svg>