<svg xmlns="http://www.w3.org/2000/svg" preserveAspectRatio="none" viewBox="0 0 100 1"><rect fill="#2563EB" width="1" height="0.8706046034798933" x="0" y="0.12939539652010668" /><rect fill="#2563EB" width="1" height="0.9502093431553721" x="1" y="0.04979065684462791" /><rect fill="#2563EB" width="1" height="0.7873428661896203" x="2" y="0.21265713381037965" /><rect fill="#2563EB" width="1" height="0.809294516021078" x="3" y="0.19070548397892195" /><rect fill="#2563EB" width="1" height="0.7453968528107434" x="4" y="0.2546031471892566" /><rect fill="#2563EB" width="1" height="0.7081126424249999" x="5" y="0.29188735757500006" /><rect fill="#2563EB" width="1" height="0.8450614307808704" x="6" y="0.15493856921912963" /><rect fill="#2563EB" width="1" height="0.812887114203947" x="7" y="0.187112885796053" /><rect fill="#2563EB" width="1" height="0.6497277268322076" x="8" y="0.3502722731677924" /><rect fill="#2563EB" width="1" height="0.8056053158429728" x="9" y="0.1943946841570272" /><rect fill="#2563EB" width="1" height="0.6898698565370535" x="10" y="0.31013014346294654" /><rect fill="#2563EB" width="1" height="0.8143856649788643" x="11" y="0.18561433502113567" /><rect fill="#2563EB" width="1" height="0.9094252006385383" x="12" y="0.09057479936146173" /><rect fill="#2563EB" width="1" height="0.9002347796703651" x="13" y="0.09976522032963486" /><rect fill="#2563EB" width="1" height="0.9650351612814689" x="14" y="0.034964838718531066" /><rect fill="#2563EB" width="1" height="0.7296910357569805" x="15" y="0.27030896424301953" /><rect fill="#2563EB" width="1" height="0.8121055138435039" x="16" y="0.18789448615649607" /><rect fill="#2563EB" width="1" height="0.89529596544028" x="17" y="0.10470403455972" /><rect fill="#2563EB" width="1" height="0.8091499299770883" x="18" y="0.19085007002291166" /><rect fill="#2563EB" width="1" height="0.7723273362917822" x="19" y="0.22767266370821782" /><rect fill="#2563EB" width="1" height="0.8139070749449728" x="20" y="0.18609292505502717" /><rect fill="#2563EB" width="1" height="0.7483384592471689" x="21" y="0.2516615407528311" /><rect fill="#2563EB" width="1" height="0.8074353383724585" x="22" y="0.1925646616275415" /><rect fill="#2563EB" width="1" height="0.817721411816199" x="23" y="0.18227858818380105" /><rect fill="#2563EB" width="1" height="0.7332742137394695" x="24" y="0.26672578626053045" /><rect fill="#2563EB" width="1" height="0.7994513047780492" x="25" y="0.20054869522195085" /><rect fill="#2563EB" width="1" height="0.7623984663777491" x="26" y="0.2376015336222509" /><rect fill="#2563EB" width="1" height="0.763550945337928" x="27" y="0.236449054662072" /><rect fill="#2563EB" width="1" height="0.6196687882332638" x="28" y="0.38033121176673623" /><rect fill="#2563EB" width="1" height="0.6770367476610802" x="29" y="0.32296325233891976" /><rect fill="#2563EB" width="1" height="0.9239697548985638" x="30" y="0.07603024510143619" /><rect fill="#2563EB" width="1" height="0.8563728285995329" x="31" y="0.1436271714004671" /><rect fill="#2563EB" width="1" height="0.7888768000456029" x="32" y="0.2111231999543971" /><rect fill="#2563EB" width="1" height="0.5226846354974046" x="33" y="0.4773153645025954" /><rect fill="#2563EB" width="1" height="0.6109016208188497" x="34" y="0.3890983791811503" /><rect fill="#2563EB" width="1" height="0.7781927557108114" x="35" y="0.22180724428918863" /><rect fill="#2563EB" width="1" height="0.8148095975598005" x="36" y="0.18519040244019946" /><rect fill="#2563EB" width="1" height="0.934030548255627" x="37" y="0.06596945174437296" /><rect fill="#2563EB" width="1" height="0.852853541990252" x="38" y="0.14714645800974802" /><rect fill="#2563EB" width="1" height="0.7227353469895216" x="39" y="0.2772646530104784" /><rect fill="#2563EB" width="1" height="0.7344311935380684" x="40" y="0.2655688064619316" /><rect fill="#2563EB" width="1" height="0.8905071733478996" x="41" y="0.10949282665210036" /><rect fill="#2563EB" width="1" height="0.8045608154053684" x="42" y="0.1954391845946316" /><rect fill="#2563EB" width="1" height="0.8870378297771143" x="43" y="0.11296217022288568" /><rect fill="#2563EB" width="1" height="0.815202439015074" x="44" y="0.18479756098492595" /><rect fill="#2563EB" width="1" height="0.6914975014004212" x="45" y="0.3085024985995788" /><rect fill="#2563EB" width="1" height="0.7711215779906004" x="46" y="0.22887842200939956" /><rect fill="#2563EB" width="1" height="0.8721722676373141" x="47" y="0.12782773236268585" /><rect fill="#2563EB" width="1" height="0.7879177500583036" x="48" y="0.21208224994169644" /><rect fill="#2563EB" width="1" height="0.8966677585196939" x="49" y="0.10333224148030606" /><rect fill="#2563EB" width="1" height="0.8232963580301867" x="50" y="0.17670364196981325" /><rect fill="#2563EB" width="1" height="0.7231994443471155" x="51" y="0.27680055565288453" /><rect fill="#2563EB" width="1" height="0.7070454924524386" x="52" y="0.29295450754756136" /><rect fill="#2563EB" width="1" height="0.8667520733107812" x="53" y="0.1332479266892188" /><rect fill="#2563EB" width="1" height="0.7594740085251105" x="54" y="0.2405259914748895" /><rect fill="#2563EB" width="1" height="0.8006666271794127" x="55" y="0.19933337282058727" /><rect fill="#2563EB" width="1" height="0.7446259652881738" x="56" y="0.2553740347118262" /><rect fill="#2563EB" width="1" height="0.636436344968273" x="57" y="0.36356365503172705" /><rect fill="#2563EB" width="1" height="0.6274619716408324" x="58" y="0.3725380283591676" /><rect fill="#2563EB" width="1" height="0.8301197656392941" x="59" y="0.16988023436070587" /><rect fill="#2563EB" width="1" height="0.6391460357674412" x="60" y="0.3608539642325588" /><rect fill="#2563EB" width="1" height="0.7123450040583337" x="61" y="0.2876549959416663" /><rect fill="#2563EB" width="1" height="0.9011420422843841" x="62" y="0.0988579577156159" /><rect fill="#2563EB" width="1" height="0.5944124074759733" x="63" y="0.40558759252402665" /><rect fill="#2563EB" width="1" height="0.7896723553032133" x="64" y="0.21032764469678666" /><rect fill="#2563EB" width="1" height="0.8534410419060193" x="65" y="0.14655895809398067" /><rect fill="#2563EB" width="1" height="0.7161359399565483" x="66" y="0.28386406004345166" /><rect fill="#2563EB" width="1" height="0.5781844731902253" x="67" y="0.42181552680977474" /><rect fill="#2563EB" width="1" height="0.650896154359897" x="68" y="0.349103845640103" /><rect fill="#2563EB" width="1" height="0.6123698048341125" x="69" y="0.3876301951658875" /><rect fill="#2563EB" width="1" height="0.6436318083405745" x="70" y="0.35636819165942546" /><rect fill="#2563EB" width="1" height="0.8149782504402331" x="71" y="0.1850217495597669" /><rect fill="#2563EB" width="1" height="0.7380007518332755" x="72" y="0.2619992481667245" /><rect fill="#2563EB" width="1" height="0.8817759764511772" x="73" y="0.11822402354882278" /><rect fill="#2563EB" width="1" height="0.8598857110969876" x="74" y="0.14011428890301236" /><rect fill="#2563EB" width="1" height="0.7649388606086132" x="75" y="0.23506113939138684" /><rect fill="#2563EB" width="1" height="0.6495364835153681" x="76" y="0.3504635164846319" /><rect fill="#2563EB" width="1" height="0.7333053220500942" x="77" y="0.26669467794990576" /><rect fill="#2563EB" width="1" height="1" x="78" y="0" /><rect fill="#2563EB" width="1" height="0.9387400699839736" x="79" y="0.061259930016026365" /><rect fill="#2563EB" width="1" height="0.8396804846501313" x="80" y="0.16031951534986866" /><rect fill="#2563EB" width="1" height="0.6996975284793424" x="81" y="0.3003024715206576" /><rect fill="#2563EB" width="1" height="0.7635531947799485" x="82" y="0.23644680522005146" /><rect fill="#2563EB" width="1" height="0.7422168613604884" x="83" y="0.25778313863951163" /><rect fill="#2563EB" width="1" height="0.6401811119754272" x="84" y="0.35981888802457285" /><rect fill="#2563EB" width="1" height="0.6582477173732103" x="85" y="0.3417522826267897" /><rect fill="#2563EB" width="1" height="0.757638747966826" x="86" y="0.24236125203317405" /><rect fill="#2563EB" width="1" height="0.7106535249434424" x="87" y="0.28934647505655764" /><rect fill="#2563EB" width="1" height="0.681145868749066" x="88" y="0.318854131250934" /><rect fill="#2563EB" width="1" height="0.7844023750622604" x="89" y="0.2155976249377396" /><rect fill="#2563EB" width="1" height="0.7684422000686532" x="90" y="0.23155779993134684" /><rect fill="#2563EB" width="1" height="0.7394490956040086" x="91" y="0.2605509043959914" /><rect fill="#2563EB" width="1" height="0.6011980338880968" x="92" y="0.3988019661119032" /><rect fill="#2563EB" width="1" height="0.6183386701291735" x="93" y="0.38166132987082646" /><rect fill="#2563EB" width="1" height="0.6712294506703079" x="94" y="0.3287705493296921" /><rect fill="#2563EB" width="1" height="0.960261213748816" x="95" y="0.03973878625118399" /><rect fill="#2563EB" width="1" height="0.4515775516731082" x="96" y="0.5484224483268918" /><rect fill="#2563EB" width="1" height="0.004260193484966647" x="97" y="0.9957398065150334" /><rect fill="#2563EB" width="1" height="0.00002229401744814865" x="98" y="0.9999777059825519" /><rect fill="#2563EB" width="1" height="8.329228500017436e-7" x="99" y="0.99999916707715" /></svg>