<svg xmlns="http://www.w3.org/2000/svg" preserveAspectRatio="none" viewBox="0 0 100 1"><rect fill="#2563EB" width="1" height="0.0000607382261438253" x="0" y="0.9999392617738562" /><rect fill="#2563EB" width="1" height="0.6112124435590109" x="1" y="0.38878755644098906" /><rect fill="#2563EB" width="1" height="0.6486876820222008" x="2" y="0.35131231797779916" /><rect fill="#2563EB" width="1" height="0.7889844169062735" x="3" y="0.21101558309372648" /><rect fill="#2563EB" width="1" height="0.6807136385389604" x="4" y="0.3192863614610396" /><rect fill="#2563EB" width="1" height="0.7703769439631589" x="5" y="0.22962305603684108" /><rect fill="#2563EB" width="1" height="0.6889637509864955" x="6" y="0.31103624901350446" /><rect fill="#2563EB" width="1" height="0.7135192920947656" x="7" y="0.2864807079052344" /><rect fill="#2563EB" width="1" height="0.7689542217516482" x="8" y="0.23104577824835182" /><rect fill="#2563EB" width="1" height="0.8035405950378234" x="9" y="0.19645940496217662" /><rect fill="#2563EB" width="1" height="0.8555958398430265" x="10" y="0.14440416015697355" /><rect fill="#2563EB" width="1" height="0.7519218929435662" x="11" y="0.24807810705643385" /><rect fill="#2563EB" width="1" height="0.8814845636532933" x="12" y="0.11851543634670669" /><rect fill="#2563EB" width="1" height="0.7704032750757385" x="13" y="0.22959672492426153" /><rect fill="#2563EB" width="1" height="0.8602085746534941" x="14" y="0.1397914253465059" /><rect fill="#2563EB" width="1" height="0.817657285024144" x="15" y="0.18234271497585597" /><rect fill="#2563EB" width="1" height="0.9354369293497888" x="16" y="0.06456307065021116" /><rect fill="#2563EB" width="1" height="0.9239995850140531" x="17" y="0.0760004149859469" /><rect fill="#2563EB" width="1" height="0.9032878775104968" x="18" y="0.09671212248950323" /><rect fill="#2563EB" width="1" height="0.9122114350032947" x="19" y="0.08778856499670529" /><rect fill="#2563EB" width="1" height="0.9222073836942888" x="20" y="0.07779261630571122" /><rect fill="#2563EB" width="1" height="0.9646577136882317" x="21" y="0.03534228631176828" /><rect fill="#2563EB" width="1" height="0.9431828903611427" x="22" y="0.05681710963885733" /><rect fill="#2563EB" width="1" height="0.8946502277347335" x="23" y="0.10534977226526654" /><rect fill="#2563EB" width="1" height="0.9564921722274133" x="24" y="0.04350782777258666" /><rect fill="#2563EB" width="1" height="0.9390062185187686" x="25" y="0.06099378148123136" /><rect fill="#2563EB" width="1" height="0.9608435687525622" x="26" y="0.03915643124743784" /><rect fill="#2563EB" width="1" height="0.9256060933619754" x="27" y="0.07439390663802459" /><rect fill="#2563EB" width="1" height="0.952618323325897" x="28" y="0.04738167667410298" /><rect fill="#2563EB" width="1" height="0.9395677913269186" x="29" y="0.06043220867308141" /><rect fill="#2563EB" width="1" height="0.9286405875263569" x="30" y="0.07135941247364308" /><rect fill="#2563EB" width="1" height="0.9217244220761208" x="31" y="0.07827557792387918" /><rect fill="#2563EB" width="1" height="0.9222850448484761" x="32" y="0.07771495515152393" /><rect fill="#2563EB" width="1" height="0.9955732005585601" x="33" y="0.004426799441439866" /><rect fill="#2563EB" width="1" height="0.9419670761877141" x="34" y="0.058032923812285864" /><rect fill="#2563EB" width="1" height="0.9844049577134971" x="35" y="0.01559504228650288" /><rect fill="#2563EB" width="1" height="0.9912106095767224" x="36" y="0.008789390423277643" /><rect fill="#2563EB" width="1" height="0.9465961387765989" x="37" y="0.05340386122340113" /><rect fill="#2563EB" width="1" height="0.9311259378479436" x="38" y="0.06887406215205638" /><rect fill="#2563EB" width="1" height="0.9175388759440942" x="39" y="0.08246112405590578" /><rect fill="#2563EB" width="1" height="0.9860042048125042" x="40" y="0.01399579518749583" /><rect fill="#2563EB" width="1" height="0.9436638258478924" x="41" y="0.056336174152107565" /><rect fill="#2563EB" width="1" height="0.9641567330414667" x="42" y="0.03584326695853335" /><rect fill="#2563EB" width="1" height="0.9250989246608865" x="43" y="0.0749010753391135" /><rect fill="#2563EB" width="1" height="0.9692414997175577" x="44" y="0.030758500282442314" /><rect fill="#2563EB" width="1" height="0.9322629620432048" x="45" y="0.0677370379567952" /><rect fill="#2563EB" width="1" height="0.9184827364098629" x="46" y="0.08151726359013711" /><rect fill="#2563EB" width="1" height="0.9886957277369403" x="47" y="0.011304272263059745" /><rect fill="#2563EB" width="1" height="0.9545935337295722" x="48" y="0.04540646627042777" /><rect fill="#2563EB" width="1" height="0.958068753658168" x="49" y="0.041931246341831985" /><rect fill="#2563EB" width="1" height="0.946883193379537" x="50" y="0.05311680662046303" /><rect fill="#2563EB" width="1" height="0.4863539946304831" x="51" y="0.5136460053695169" /><rect fill="#2563EB" width="1" height="0.39344117835524983" x="52" y="0.6065588216447502" /><rect fill="#2563EB" width="1" height="0.4281580400625518" x="53" y="0.5718419599374482" /><rect fill="#2563EB" width="1" height="0.4176849784845997" x="54" y="0.5823150215154003" /><rect fill="#2563EB" width="1" height="0.4131677772966319" x="55" y="0.5868322227033681" /><rect fill="#2563EB" width="1" height="0.44055855279129386" x="56" y="0.5594414472087061" /><rect fill="#2563EB" width="1" height="0.3769965341413213" x="57" y="0.6230034658586787" /><rect fill="#2563EB" width="1" height="0.9427257540764518" x="58" y="0.05727424592354824" /><rect fill="#2563EB" width="1" height="0.8879567626395836" x="59" y="0.11204323736041644" /><rect fill="#2563EB" width="1" height="0.912221327860739" x="60" y="0.08777867213926105" /><rect fill="#2563EB" width="1" height="0.8755398158308149" x="61" y="0.12446018416918514" /><rect fill="#2563EB" width="1" height="0.8679544203758071" x="62" y="0.13204557962419294" /><rect fill="#2563EB" width="1" height="0.9443914045007459" x="63" y="0.05560859549925412" /><rect fill="#2563EB" width="1" height="1" x="64" y="0" /><rect fill="#2563EB" width="1" height="0.9624441513417737" x="65" y="0.037555848658226254" /><rect fill="#2563EB" width="1" height="0.908424482450664" x="66" y="0.09157551754933602" /><rect fill="#2563EB" width="1" height="0.8996815040201424" x="67" y="0.10031849597985765" /><rect fill="#2563EB" width="1" height="0.9411388750635641" x="68" y="0.058861124936435916" /><rect fill="#2563EB" width="1" height="0.8750429696524485" x="69" y="0.12495703034755146" /><rect fill="#2563EB" width="1" height="0.9010516727248732" x="70" y="0.09894832727512681" /><rect fill="#2563EB" width="1" height="0.9089644586700227" x="71" y="0.09103554132997727" /><rect fill="#2563EB" width="1" height="0.9052051945338159" x="72" y="0.09479480546618413" /><rect fill="#2563EB" width="1" height="0.8564131970540704" x="73" y="0.14358680294592963" /><rect fill="#2563EB" width="1" height="0.8701502075675002" x="74" y="0.12984979243249983" /><rect fill="#2563EB" width="1" height="0.9184374208482791" x="75" y="0.08156257915172094" /><rect fill="#2563EB" width="1" height="0.8725154922564311" x="76" y="0.1274845077435689" /><rect fill="#2563EB" width="1" height="0.9293506105954699" x="77" y="0.07064938940453014" /><rect fill="#2563EB" width="1" height="0.885174600810659" x="78" y="0.11482539918934098" /><rect fill="#2563EB" width="1" height="0.9065153044918003" x="79" y="0.09348469550819971" /><rect fill="#2563EB" width="1" height="0.8952292249339521" x="80" y="0.10477077506604793" /><rect fill="#2563EB" width="1" height="0.9011413111299411" x="81" y="0.09885868887005889" /><rect fill="#2563EB" width="1" height="0.9099510793918892" x="82" y="0.09004892060811076" /><rect fill="#2563EB" width="1" height="0.9049893627470593" x="83" y="0.09501063725294068" /><rect fill="#2563EB" width="1" height="0.9516088535858142" x="84" y="0.04839114641418585" /><rect fill="#2563EB" width="1" height="0.9464141848571896" x="85" y="0.053585815142810356" /><rect fill="#2563EB" width="1" height="0.9296458174661725" x="86" y="0.07035418253382753" /><rect fill="#2563EB" width="1" height="0.9055599115530999" x="87" y="0.0944400884469001" /><rect fill="#2563EB" width="1" height="0.9296759875852005" x="88" y="0.07032401241479946" /><rect fill="#2563EB" width="1" height="0.9314450873202851" x="89" y="0.06855491267971492" /><rect fill="#2563EB" width="1" height="0.9361014318827434" x="90" y="0.06389856811725658" /><rect fill="#2563EB" width="1" height="0.9538819485587143" x="91" y="0.04611805144128567" /><rect fill="#2563EB" width="1" height="0.9573208023977678" x="92" y="0.042679197602232155" /><rect fill="#2563EB" width="1" height="0.9195744832394687" x="93" y="0.08042551676053133" /><rect fill="#2563EB" width="1" height="0.9269957327084203" x="94" y="0.07300426729157972" /><rect fill="#2563EB" width="1" height="0.9425935422069702" x="95" y="0.057406457793029775" /><rect fill="#2563EB" width="1" height="0.9614289618946327" x="96" y="0.03857103810536733" /><rect fill="#2563EB" width="1" height="0.5984542501261844" x="97" y="0.40154574987381564" /><rect fill="#2563EB" width="1" height="0.2203845961470905" x="98" y="0.7796154038529095" /><rect fill="#2563EB" width="1" height="0.030559550315421527" x="99" y="0.9694404496845784" /></svg>